<?xml version="1.0" encoding="iso-8859-1"?>
<!-- Generator: Adobe Illustrator 16.0.0, SVG Export Plug-In . SVG Version: 6.00 Build 0)  -->
<!DOCTYPE svg PUBLIC "-//W3C//DTD SVG 1.1//EN" "http://www.w3.org/Graphics/SVG/1.1/DTD/svg11.dtd">
<svg version="1.1" id="Capa_1" xmlns="http://www.w3.org/2000/svg" xmlns:xlink="http://www.w3.org/1999/xlink" x="0px" y="0px"
	 width="378.999px" height="378.999px" viewBox="0 0 378.999 378.999" style="enable-background:new 0 0 378.999 378.999;"
	 xml:space="preserve">
<g>
	<g>
		<path d="M371.499,171.333h-356.5V88c0-9.006,7.327-16.333,16.333-16.333c8.489,0,15.48,6.512,16.256,14.801l-12.565,9.348
			c-3.323,2.472-4.013,7.17-1.541,10.494c1.472,1.979,3.733,3.024,6.023,3.024c1.556,0,3.126-0.483,4.471-1.483l41-30.5
			c3.323-2.472,4.013-7.17,1.541-10.494c-2.472-3.323-7.17-4.014-10.494-1.541L60.588,76.798
			c-4.519-11.759-15.924-20.131-29.255-20.131C14.056,56.667,0,70.723,0,88v90.833v6.834v43.166c0,31.706,25.794,57.5,57.5,57.5
			h3.06l-23.196,23.195c-2.929,2.931-2.929,7.679,0,10.607c1.464,1.465,3.384,2.196,5.303,2.196s3.839-0.731,5.303-2.196
			l33.804-33.804h215.454l33.804,33.804c1.464,1.465,3.384,2.196,5.303,2.196s3.839-0.731,5.303-2.196
			c2.93-2.93,2.93-7.678,0-10.607l-23.195-23.195h3.058c31.706,0,57.5-25.794,57.5-57.5v-50
			C378.999,174.691,375.641,171.333,371.499,171.333z M363.999,228.833c0,23.436-19.065,42.5-42.5,42.5h-264
			c-23.435,0-42.5-19.064-42.5-42.5v-42.5h349V228.833z"/>
		<path d="M50.091,128.422c2.668,2.669,6.995,2.669,9.664,0c2.668-2.668,2.668-6.995,0-9.664
			c-2.668-2.668-13.178-3.514-13.178-3.514S47.422,125.754,50.091,128.422z"/>
		<path d="M94.821,123.348c-2.668-2.668-13.178-3.514-13.178-3.514s0.845,10.51,3.514,13.178c2.668,2.669,6.995,2.669,9.664,0
			C97.49,130.344,97.49,126.017,94.821,123.348z"/>
		<path d="M81.643,152.167c0,0,0.845,10.51,3.514,13.178c2.668,2.669,6.995,2.669,9.664,0c2.668-2.668,2.668-6.995,0-9.664
			C92.152,153.013,81.643,152.167,81.643,152.167z"/>
		<path d="M128.411,140.602c2.668-2.668,2.668-6.995,0-9.664c-2.668-2.668-13.178-3.514-13.178-3.514s0.845,10.51,3.514,13.178
			C121.416,143.271,125.742,143.271,128.411,140.602z"/>
		<path d="M88.747,105.588c2.668,2.669,6.995,2.669,9.664,0c2.668-2.669,2.668-6.995,0-9.664
			c-2.668-2.668-13.178-3.514-13.178-3.514S86.078,102.919,88.747,105.588z"/>
	</g>
</g>
<g>
</g>
<g>
</g>
<g>
</g>
<g>
</g>
<g>
</g>
<g>
</g>
<g>
</g>
<g>
</g>
<g>
</g>
<g>
</g>
<g>
</g>
<g>
</g>
<g>
</g>
<g>
</g>
<g>
</g>
</svg>
