<?xml version="1.0" standalone="no"?>
<!DOCTYPE svg PUBLIC "-//W3C//DTD SVG 20010904//EN"
 "http://www.w3.org/TR/2001/REC-SVG-20010904/DTD/svg10.dtd">
<svg version="1.0" xmlns="http://www.w3.org/2000/svg"
 width="171.000000pt" height="171.000000pt" viewBox="0 0 171.000000 171.000000"
 preserveAspectRatio="xMidYMid meet">
<metadata>
Created by potrace 1.12, written by Peter Selinger 2001-2015
</metadata>
<g transform="translate(0.000000,171.000000) scale(0.100000,-0.100000)"
fill="#000000" stroke="none">
<path d="M724 1700 c-47 -19 -69 -92 -44 -141 17 -31 67 -51 109 -44 29 5 41
2 54 -13 16 -18 12 -23 -116 -128 -72 -61 -245 -205 -383 -321 -191 -160 -260
-212 -287 -217 -20 -4 -39 -11 -42 -16 -5 -8 165 -763 181 -805 4 -8 10 -15
15 -15 24 0 1474 341 1482 349 10 10 -170 791 -187 809 -10 10 -22 11 -47 5
-33 -9 -40 -4 -277 180 -192 150 -247 188 -265 183 -33 -8 -68 29 -56 61 6 16
5 34 -5 57 -24 57 -75 79 -132 56z m194 -262 c9 -9 17 -10 30 -1 16 9 47 -12
216 -143 l197 -153 -38 -10 c-21 -6 -60 -15 -88 -21 -126 -28 -997 -231 -1013
-237 -15 -5 -15 -4 -2 9 8 8 128 109 265 224 138 115 286 239 330 276 44 37
82 68 86 68 3 0 11 -6 17 -12z m641 -689 c46 -198 81 -362 79 -365 -3 -2 -207
-51 -454 -108 -247 -57 -560 -130 -697 -162 -136 -31 -249 -55 -251 -53 -6 8
-168 720 -164 724 2 2 249 61 548 131 300 69 606 141 680 159 74 18 144 33
155 34 19 1 28 -30 104 -360z"/>
<path d="M961 821 c-13 -8 -9 -35 25 -178 l40 -168 28 2 c16 1 31 5 34 8 3 3
-12 81 -34 173 -34 143 -42 167 -59 170 -11 1 -27 -2 -34 -7z"/>
<path d="M1205 785 c-58 -20 -95 -66 -95 -115 0 -53 22 -104 53 -125 56 -36
227 -5 227 42 0 38 -15 45 -44 22 -38 -30 -116 -38 -139 -14 -32 31 -29 33
110 65 50 11 53 13 46 38 -3 15 -14 39 -25 54 -17 24 -30 31 -78 43 -8 2 -33
-2 -55 -10z"/>
<path d="M498 700 c-72 -9 -118 -36 -141 -82 -17 -35 -17 -39 -1 -73 21 -44
46 -55 125 -55 95 0 123 -26 77 -70 -20 -19 -32 -21 -83 -17 -33 2 -68 8 -78
12 -16 7 -17 4 -11 -21 9 -39 15 -44 56 -50 50 -9 145 21 179 56 35 35 40 95
10 131 -15 19 -30 23 -104 28 -91 6 -113 17 -103 49 10 31 58 46 125 39 57 -6
59 -6 54 16 -5 21 -31 48 -42 46 -3 -1 -31 -5 -63 -9z"/>
<path d="M749 681 c-46 -14 -69 -31 -69 -51 0 -27 17 -34 44 -17 34 23 93 32
111 17 24 -20 18 -27 -36 -46 -70 -25 -99 -54 -99 -98 0 -74 90 -99 151 -40
24 23 28 24 37 9 13 -24 75 -11 68 13 -3 10 -14 55 -25 102 -23 101 -41 120
-110 119 -25 0 -58 -4 -72 -8z"/>
</g>
</svg>
